<?xml version="1.0" encoding="UTF-8" standalone="no"?>
<!-- Created with Inkscape (http://www.inkscape.org/) -->

<svg
   xmlns:dc="http://purl.org/dc/elements/1.1/"
   xmlns:cc="http://creativecommons.org/ns#"
   xmlns:rdf="http://www.w3.org/1999/02/22-rdf-syntax-ns#"
   xmlns:svg="http://www.w3.org/2000/svg"
   xmlns="http://www.w3.org/2000/svg"
   xmlns:sodipodi="http://sodipodi.sourceforge.net/DTD/sodipodi-0.dtd"
   xmlns:inkscape="http://www.inkscape.org/namespaces/inkscape"
   width="542.09039"
   height="482.78214"
   viewBox="0 0 542.09039 482.78214"
   id="svg14536"
   version="1.1"
   inkscape:version="0.91 r13725"
   sodipodi:docname="logo2.svg"
   inkscape:export-filename="/Users/jyothsnasrinivas/Documents/TypeLead/Logo/rectanglelogo1.png"
   inkscape:export-xdpi="90"
   inkscape:export-ydpi="90">
  <defs
     id="defs14538">
    <linearGradient
       id="gradient"
       x1="0.5"
       y1="0"
       x2="0.5"
       y2="1">
      <stop
         offset="0"
         stop-color="red"
         id="stop5" />
      <stop
         offset="1"
         stop-color="blue"
         id="stop7" />
    </linearGradient>
    <linearGradient
       id="g752"
       gradientUnits="userSpaceOnUse"
       x1="0"
       y1="0"
       x2="1"
       y2="0"
       gradientTransform="translate(-71.952386,-28.428533)">
      <stop
         stop-color="#104bF2"
         offset="0"
         id="stop10" />
      <stop
         stop-color="#1080f2"
         offset="1"
         id="stop12" />
    </linearGradient>
  </defs>
  <sodipodi:namedview
     id="base"
     pagecolor="#ffffff"
     bordercolor="#666666"
     borderopacity="1.0"
     inkscape:pageopacity="0.0"
     inkscape:pageshadow="2"
     inkscape:zoom="0.5"
     inkscape:cx="-61.897693"
     inkscape:cy="136.19159"
     inkscape:document-units="px"
     inkscape:current-layer="layer1"
     showgrid="false"
     units="px"
     fit-margin-top="0"
     fit-margin-left="0"
     fit-margin-right="0"
     fit-margin-bottom="0"
     inkscape:window-width="1280"
     inkscape:window-height="751"
     inkscape:window-x="0"
     inkscape:window-y="1"
     inkscape:window-maximized="1" />
  <metadata
     id="metadata14541">
    <rdf:RDF>
      <cc:Work
         rdf:about="">
        <dc:format>image/svg+xml</dc:format>
        <dc:type
           rdf:resource="http://purl.org/dc/dcmitype/StillImage" />
        <dc:title></dc:title>
      </cc:Work>
    </rdf:RDF>
  </metadata>
  <g
     inkscape:label="Layer 1"
     inkscape:groupmode="layer"
     id="layer1"
     transform="translate(326.53638,-335.67005)">
    <g
       id="g8082"
       transform="matrix(1.2904149,0,0,1.2904149,16.115403,-167.58648)">
      <path
         style="fill:none;fill-rule:evenodd;stroke:#ffffff;stroke-width:20.55120087;stroke-linecap:butt;stroke-linejoin:miter;stroke-miterlimit:4;stroke-dasharray:none;stroke-opacity:1"
         d="m -151.90237,624.41813 c -9.9757,47.21836 7.2003,106.68138 52.6278,123.37604 36.962378,16.20485 77.946522,-15.18101 85.552746,-55.50412 C 6.48852,614.75785 -34.9847,535.10637 -87.870605,485.49565 -122.64901,454.6772 -164.20626,423.45945 -210.96079,425.06142 c -41.22849,6.38861 -54.27606,64.56773 -36.40324,100.22652 27.18456,48.92783 83.2086,67.79353 132.9545,72.03115 19.205785,1.66633 38.513636,1.492 57.738045,0.30332"
         id="path8120"
         inkscape:connector-curvature="0" />
      <path
         style="fill:none;fill-rule:evenodd;stroke:#ffffff;stroke-width:15.4133997;stroke-linecap:butt;stroke-linejoin:miter;stroke-miterlimit:4;stroke-dasharray:none;stroke-opacity:1"
         d="m -229.07226,429.70804 c 49.11453,-36.67594 119.87563,-26.16357 160.8747,19.85421 54.731628,49.77455 107.018563,118.35167 106.546332,200.00419 0.71103,45.63221 -23.523985,100.02155 -69.338503,105.78139 -22.899747,3.3244 -45.841708,-1.95394 -68.371483,-5.88653"
         id="path8122"
         inkscape:connector-curvature="0" />
      <path
         style="fill:none;fill-rule:evenodd;stroke:#ffffff;stroke-width:15.4133997;stroke-linecap:butt;stroke-linejoin:miter;stroke-miterlimit:4;stroke-dasharray:none;stroke-opacity:1"
         d="m -36.96854,431.49435 c 42.7368189,-21.99315 92.873621,-46.8323 140.03449,-25.93238 33.4855,22.06362 25.05027,75.81904 0.0345,101.74044 -17.128508,19.40802 -39.576762,31.64909 -61.257242,43.87612"
         id="path8124"
         inkscape:connector-curvature="0" />
      <path
         style="fill:none;fill-rule:evenodd;stroke:#ffffff;stroke-width:15.4133997;stroke-linecap:butt;stroke-linejoin:miter;stroke-miterlimit:4;stroke-dasharray:none;stroke-opacity:1"
         d="m 114.08733,415.41737 c 44.33744,28.33654 42.04894,104.51045 2.91584,137.02138 -17.270466,16.90537 -38.103719,28.61746 -58.740583,39.82542"
         id="path8126"
         inkscape:connector-curvature="0" />
    </g>
  </g>
</svg>
